<?xml version="1.0" encoding="UTF-8" standalone="no"?>
<!-- Created with Inkscape (http://www.inkscape.org/) -->

<svg
   version="1.1"
   id="svg9"
   width="120"
   height="46"
   viewBox="0 0 120 46"
   sodipodi:docname="logo_coppel.svg"
   inkscape:version="1.2.1 (9c6d41e410, 2022-07-14)"
   xmlns:inkscape="http://www.inkscape.org/namespaces/inkscape"
   xmlns:sodipodi="http://sodipodi.sourceforge.net/DTD/sodipodi-0.dtd"
   xmlns="http://www.w3.org/2000/svg"
   xmlns:svg="http://www.w3.org/2000/svg">
  <defs
     id="defs13">
    <clipPath
       clipPathUnits="userSpaceOnUse"
       id="clipPath27">
      <path
         d="M 0,612 H 792 V 0 H 0 Z"
         id="path25" />
    </clipPath>
  </defs>
  <sodipodi:namedview
     id="namedview11"
     pagecolor="#ffffff"
     bordercolor="#000000"
     borderopacity="0.25"
     inkscape:showpageshadow="2"
     inkscape:pageopacity="0"
     inkscape:pagecheckerboard="false"
     inkscape:deskcolor="#d1d1d1"
     showgrid="false"
     inkscape:zoom="7.9019608"
     inkscape:cx="68.210918"
     inkscape:cy="35.560794"
     inkscape:window-width="1920"
     inkscape:window-height="1009"
     inkscape:window-x="1358"
     inkscape:window-y="-8"
     inkscape:window-maximized="1"
     inkscape:current-layer="g23"
     inkscape:lockguides="false"
     showguides="true">
    <inkscape:page
       x="0"
       y="0"
       id="page15"
       width="120"
       height="46"
       inkscape:export-filename="..\Página 1.png"
       inkscape:export-xdpi="96"
       inkscape:export-ydpi="96" />
  </sodipodi:namedview>
  <g
     id="g17"
     inkscape:groupmode="layer"
     inkscape:label="Page 1"
     transform="matrix(1.3333333,0,0,-1.3333333,-326.69107,441.39578)">
    <path
       d="m 271.03167,322.31483 h 61.4313 V 305.5132 h -61.4313 z"
       style="fill:#cccccc;fill-opacity:1;fill-rule:evenodd;stroke:none;stroke-width:0.240185"
       id="path19" />
    <g
       id="g21">
      <g
         id="g23"
         clip-path="url(#clipPath27)">
        <g
           id="g29"
           transform="matrix(0.24018461,0,0,0.24018461,248.76644,322.30498)">
          <path
             d="m 0,0 h 85.162 c 1.847,0 3.359,-1.694 3.359,-3.769 v -62.373 c 0,-2.075 -1.512,-3.763 -3.359,-3.763 H 0 c -1.847,0 -3.355,1.688 -3.355,3.763 V -3.769 C -3.355,-1.694 -1.847,0 0,0"
             style="fill:#cccccc;fill-opacity:1;fill-rule:evenodd;stroke:none"
             id="path31" />
        </g>
        <g
           id="g33"
           transform="matrix(0.24018461,0,0,0.24018461,264.17661,311.52401)">
          <path
             d="M 0,0 H 11.959 V -10.592 H 7.93 v 3.916 H 4.032 v -3.92 H 0 Z"
             style="fill:#ffffff;fill-opacity:1;fill-rule:evenodd;stroke:none"
             id="path35" />
        </g>
        <g
           id="g37"
           transform="matrix(0.24018461,0,0,0.24018461,254.55633,311.66956)">
          <path
             d="m 0,0 c 1.956,0 3.548,-1.611 3.548,-3.575 0,-1.968 -1.592,-3.571 -3.548,-3.571 -1.957,0 -3.555,1.603 -3.555,3.571 C -3.555,-1.611 -1.957,0 0,0 m -10.465,7.15 c 1.954,0 3.551,-1.606 3.551,-3.574 0,-1.965 -1.597,-3.568 -3.551,-3.568 -1.959,0 -3.553,1.603 -3.553,3.568 0,1.968 1.594,3.574 3.553,3.574 M 0,14.362 c 1.956,0 3.548,-1.608 3.548,-3.572 C 3.548,8.818 1.956,7.218 0,7.218 c -1.957,0 -3.555,1.6 -3.555,3.572 0,1.964 1.598,3.572 3.555,3.572 M 55.715,-0.043 H 37.99 v -0.02 H 7.253 c 0.467,-1.023 0.724,-2.147 0.724,-3.338 0,-4.395 -3.569,-7.986 -7.944,-7.986 -4.226,0 -7.694,3.333 -7.936,7.514 -0.912,-0.368 -1.908,-0.565 -2.951,-0.565 -4.377,0 -7.947,3.585 -7.947,7.989 0,4.399 3.57,7.984 7.947,7.984 1.043,0 2.034,-0.196 2.947,-0.563 0.228,4.196 3.705,7.547 7.94,7.547 4.375,0 7.944,-3.587 7.944,-7.992 0,-1.222 -0.274,-2.39 -0.771,-3.427 h 48.509 v -7.143"
             style="fill:#ffffff;fill-opacity:1;fill-rule:evenodd;stroke:none"
             id="path39" />
        </g>
        <g
           id="g41"
           transform="matrix(0.24018461,0,0,0.24018461,289.46459,316.91104)">
          <path
             d="m 0,0 c 9.354,0 16.997,-7.693 17.007,-17.137 0.01,-9.44 -7.617,-17.14 -16.967,-17.14 -9.363,0 -16.997,7.7 -17.008,17.14 C -16.976,-7.693 -9.353,0 0,0 m 0.005,-6.881 c 5.59,0 10.158,-4.601 10.164,-10.246 0.006,-5.644 -4.553,-10.241 -10.144,-10.241 -5.592,0 -10.01,4.597 -10.013,10.241 -0.012,5.645 4.397,10.246 9.993,10.246"
             style="fill:#ffffff;fill-opacity:1;fill-rule:evenodd;stroke:none"
             id="path43" />
        </g>
        <g
           id="g45"
           transform="matrix(0.24018461,0,0,0.24018461,284.71883,310.47097)">
          <path
             d="m 0,0 h -12.92 c -7.681,0.466 -13.01,7.329 -12.571,15.137 0.652,8.002 5.921,13.178 14.033,13.585 4.011,0.044 7.294,0.143 11.469,0.143 l 0.006,3.143 -0.006,4.012 c -6.079,-0.108 -12.781,0.309 -16.998,-0.266 -9.034,-1.228 -16.054,-12.093 -16.045,-21.398 0.01,-12.039 9.471,-21.645 20.915,-21.645 3.928,-0.009 8.16,0.032 12.122,0.007 C -0.002,0.119 -0.008,-2.436 0,0"
             style="fill:#ffffff;fill-opacity:1;fill-rule:evenodd;stroke:none"
             id="path47" />
        </g>
        <g
           id="g49"
           transform="matrix(0.24018461,0,0,0.24018461,298.23532,315.29743)">
          <path
             d="m 0,0 c 5.845,0 10.77,-4.764 10.62,-10.299 -0.151,-5.532 -4.757,-10.454 -10.599,-10.454 -5.841,0 -9.933,4.147 -9.939,9.989 C -9.922,-4.926 -5.842,0 0,0 m -10.397,-23.619 0.051,-16.832 h -6.405 l -0.038,30.144 c -0.004,9.428 7.674,17.108 17.102,17.108 9.423,0 17.121,-7.68 17.131,-17.108 0.007,-9.428 -7.672,-17.112 -17.1,-17.112 -4.063,0 -7.799,1.427 -10.741,3.8"
             style="fill:#ffffff;fill-opacity:1;fill-rule:evenodd;stroke:none"
             id="path51" />
        </g>
        <g
           id="g53"
           transform="matrix(0.24018461,0,0,0.24018461,307.11417,315.29743)">
          <path
             d="m 0,0 c 5.84,0 10.609,-4.456 10.617,-10.299 0.008,-5.841 -4.755,-10.454 -10.596,-10.454 -5.84,0 -9.935,4.147 -9.935,9.989 C -9.924,-4.926 -5.843,0 0,0 m -10.4,-23.619 0.056,-16.832 h -6.41 l -0.035,30.144 c -0.009,9.428 7.67,17.108 17.096,17.108 9.427,0 17.127,-7.68 17.133,-17.108 0.012,-9.428 -7.669,-17.112 -17.098,-17.112 -4.059,0 -7.797,1.427 -10.742,3.8"
             style="fill:#ffffff;fill-opacity:1;fill-rule:evenodd;stroke:none"
             id="path55" />
        </g>
        <g
           id="g57"
           transform="matrix(0.24018461,0,0,0.24018461,318.73498,314.46615)">
          <path
             d="m 0,0 -15.723,-16.1 c -0.285,-0.174 1.478,-1.491 4.832,-1.378 H 1.202 L 1.21,-24.022 H -9.345 c -10.353,-0.456 -19.145,7.056 -19.147,17.112 -0.231,9.46 7.805,17.172 17.594,17.172 C -5.34,10.248 -0.672,6.375 0.03,5.44 1.443,4.241 1.563,1.045 0,0 M -20.893,-11.519 -7.292,2.356 c -1.103,0.498 -1.646,0.973 -3.719,1.16 -6.01,0 -10.957,-4.555 -10.952,-10.418 0.002,-1.841 0.219,-3.103 1.07,-4.617"
             style="fill:#ffffff;fill-opacity:1;fill-rule:evenodd;stroke:none"
             id="path59" />
        </g>
        <g
           id="g61"
           transform="matrix(0.24018461,0,0,0.24018461,319.71073,319.0585)">
          <path
             d="m 0,0 h 6.313 v -25.705 c 0.347,-4.173 1.898,-6.763 3.763,-8.387 1.207,-1.045 3.139,-1.536 5.309,-1.744 l 9.292,0.018 v -7.222 l -7.941,-0.103 c -4.248,-0.063 -8.751,0.713 -11.241,3.152 -3.495,3.43 -5.68,7.305 -5.659,15.399 z"
             style="fill:#ffffff;fill-opacity:1;fill-rule:evenodd;stroke:none"
             id="path63" />
        </g>
      </g>
    </g>
  </g>
</svg>
