<?xml version="1.0" encoding="UTF-8" standalone="no"?>
<svg
   width="120"
   height="46"
   viewBox="0 0 120 46"
   version="1.1"
   id="svg1902"
   sodipodi:docname="logo_eredes.svg"
   inkscape:version="1.2.1 (9c6d41e410, 2022-07-14)"
   inkscape:export-filename="logo_eredes.png"
   inkscape:export-xdpi="96"
   inkscape:export-ydpi="96"
   xmlns:inkscape="http://www.inkscape.org/namespaces/inkscape"
   xmlns:sodipodi="http://sodipodi.sourceforge.net/DTD/sodipodi-0.dtd"
   xmlns="http://www.w3.org/2000/svg"
   xmlns:svg="http://www.w3.org/2000/svg">
  <defs
     id="defs1906" />
  <sodipodi:namedview
     id="namedview1904"
     pagecolor="#ffffff"
     bordercolor="#000000"
     borderopacity="0.25"
     inkscape:showpageshadow="2"
     inkscape:pageopacity="0.0"
     inkscape:pagecheckerboard="0"
     inkscape:deskcolor="#d1d1d1"
     showgrid="false"
     inkscape:zoom="8.4399428"
     inkscape:cx="78.318066"
     inkscape:cy="43.957644"
     inkscape:window-width="1920"
     inkscape:window-height="1009"
     inkscape:window-x="1358"
     inkscape:window-y="-8"
     inkscape:window-maximized="1"
     inkscape:current-layer="g1896" />
  <g
     fill="none"
     fill-rule="evenodd"
     id="g1900">
    <g
       fill="#000000"
       fill-rule="nonzero"
       id="g1898">
      <g
         id="g1896">
        <path
           d="m 44.394325,13.569112 c 4.314096,0 6.608671,2.144545 6.608671,5.58935 0,2.768199 -1.745936,4.706821 -4.875972,5.211334 l 5.012764,6.654268 H 46.177034 L 41.576116,24.490408 H 40.36411 v 6.533656 H 36.204456 V 13.569112 Z m -4.030215,3.775753 v 3.640432 h 3.97138 c 1.495886,0 2.4196,-0.588353 2.4196,-1.832719 0,-1.244365 -0.939893,-1.807713 -2.410775,-1.807713 z M 67.181223,31.024064 H 53.813851 V 13.569112 h 13.320304 v 3.75369 h -9.154767 v 3.016778 h 8.616424 v 3.740452 h -8.616424 v 3.193284 h 9.201835 z M 77.711264,13.569112 c 5.461384,0 9.065044,3.466868 9.065044,8.728211 0,5.261344 -3.609544,8.726741 -9.065044,8.726741 H 70.242128 V 13.569112 Z m -3.3036,3.85371 v 9.750474 h 3.216818 c 3.23594,0 4.800958,-2.059234 4.800958,-4.875973 0,-2.854981 -1.559135,-4.874501 -4.800958,-4.874501 z M 102.30588,31.024064 H 88.939975 V 13.569112 h 13.317365 v 3.75369 h -9.1533 v 3.016778 h 8.61642 v 3.740452 h -8.61642 v 3.193284 h 9.20184 z M 117.55009,18.52157 c -1.2473,-0.748678 -2.955,-1.470881 -5.00099,-1.470881 -1.58267,0 -2.7432,0.536871 -2.7432,1.570901 0,1.097278 1.65916,1.359095 3.59189,1.695927 l 0.72368,0.125025 c 3.39185,0.588352 5.52316,2.16955 5.52316,5.024531 0,4.152299 -3.57866,5.883527 -7.31911,5.883527 -2.90499,0 -5.7482,-0.760446 -7.68094,-2.219561 l 2.08129,-3.391853 c 1.33557,0.910476 3.18005,1.832719 5.63642,1.832719 1.57238,0 2.7682,-0.535401 2.7682,-1.61797 0,-1.047268 -1.1767,-1.347328 -3.45363,-1.695926 l -0.87223,-0.136792 c -3.59189,-0.561877 -5.5364,-2.182789 -5.47462,-5.324592 0.0632,-3.391853 2.955,-5.536398 7.03228,-5.536398 2.35341,0 4.40235,0.386842 7.04553,1.845956 z m -91.329978,1.700339 h 5.820279 v 4.164066 H 26.220112 Z M 14.658983,39.056548 c -0.210337,0 -0.419202,0 -0.629538,-0.0103 C 10.331649,38.932994 7.0721752,37.835717 4.851144,35.957401 2.2035571,33.714306 0.73267552,30.697528 0.73267552,27.46453 0.73194008,25.719182 1.163938,24.000898 1.9902793,22.463533 1.0727433,20.852918 0.59,19.031084 0.59,17.177184 0.59,13.911827 2.0608816,10.865632 4.7496532,8.5990032 9.3652797,4.6982252 17.79049,4.7364681 22.765011,7.2193162 L 20.716073,11.323076 C 17.203608,9.5683141 10.755263,9.5271291 7.709067,12.101172 6.0749175,13.48233 5.1762088,15.28416 5.1762088,17.177184 c 0,0.469653 0.055452,0.937688 0.1647388,1.394396 2.5284455,-1.973923 5.3348874,-2.941763 8.5605314,-2.941763 2.332818,0 4.353809,0.685431 5.843812,1.979807 1.419401,1.207005 2.245742,2.970151 2.265158,4.833317 -0.01412,1.851987 -0.850464,3.601895 -2.282808,4.775952 -1.487062,1.242895 -3.541883,1.898908 -5.942362,1.898908 -3.022368,0.03001 -5.9658959,-0.963721 -8.3516659,-2.81968 -0.076486,0.381694 -0.1148758,0.76986 -0.1147287,1.159055 0,1.860665 0.8825289,3.633078 2.4916734,4.990701 1.4120463,1.194356 3.7301562,1.925384 6.3586212,2.006283 2.568159,0.07943 5.161324,-0.479508 6.938149,-1.494416 l 2.273982,3.981677 c -2.360764,1.359094 -5.509922,2.115127 -8.722327,2.115127 z M 7.8929272,22.407639 c 1.7915338,1.454702 3.6772038,2.13425 5.8938228,2.13425 1.294376,0 2.35341,-0.294177 3.000598,-0.832519 0.394491,-0.299178 0.630273,-0.762505 0.639834,-1.257604 0,-1.462056 -1.773883,-2.226915 -3.530116,-2.226915 -2.297517,0 -4.2096633,0.694256 -6.0041388,2.182788 z"
           id="path1894"
           style="fill:#cccccc;stroke-width:0.147088" />
      </g>
    </g>
  </g>
</svg>
