<?xml version="1.0" encoding="UTF-8" standalone="no"?>
<svg
   width="120"
   height="46"
   viewBox="-384.501 305.5 43.263312 16.590512"
   version="1.1"
   id="svg1814"
   sodipodi:docname="logo_walmart.svg"
   inkscape:version="1.2.1 (9c6d41e410, 2022-07-14)"
   xmlns:inkscape="http://www.inkscape.org/namespaces/inkscape"
   xmlns:sodipodi="http://sodipodi.sourceforge.net/DTD/sodipodi-0.dtd"
   xmlns="http://www.w3.org/2000/svg"
   xmlns:svg="http://www.w3.org/2000/svg">
  <defs
     id="defs1818" />
  <sodipodi:namedview
     id="namedview1816"
     pagecolor="#ffffff"
     bordercolor="#000000"
     borderopacity="0.25"
     inkscape:showpageshadow="2"
     inkscape:pageopacity="0.0"
     inkscape:pagecheckerboard="0"
     inkscape:deskcolor="#d1d1d1"
     showgrid="false"
     inkscape:zoom="7.744"
     inkscape:cx="75.80062"
     inkscape:cy="3.0991736"
     inkscape:window-width="1920"
     inkscape:window-height="1009"
     inkscape:window-x="1358"
     inkscape:window-y="-8"
     inkscape:window-maximized="1"
     inkscape:current-layer="svg1814" />
  <path
     d="m -346.53863,311.87402 c 0.23951,0 0.43667,-0.12454 0.46329,-0.28542 l 0.23646,-2.6743 c 0,-0.26433 -0.30966,-0.48133 -0.699,-0.48133 -0.38894,0 -0.69832,0.217 -0.69832,0.48137 l 0.23633,2.67426 c 0.026,0.16084 0.22315,0.28542 0.46205,0.28542 h -8.1e-4 m -1.44537,0.8353 c 0.12015,-0.20717 0.11108,-0.44001 -0.0156,-0.54346 l -2.19813,-1.54192 c -0.22854,-0.13235 -0.57122,0.0269 -0.76569,0.36423 -0.19515,0.33686 -0.16056,0.71308 0.0674,0.84548 l 2.43398,1.13327 c 0.15215,0.0564 0.3596,-0.0521 0.4788,-0.25917 l -7.7e-4,0.002 m 2.89201,-9.7e-4 c 0.11995,0.20703 0.32634,0.31562 0.47865,0.25918 l 2.43397,-1.13327 c 0.22935,-0.13236 0.26194,-0.50862 0.0686,-0.84547 -0.19544,-0.33695 -0.53872,-0.4966 -0.76666,-0.36423 l -2.19826,1.54192 c -0.12568,0.1033 -0.13502,0.33633 -0.0156,0.54344 l -7.6e-4,-0.002 m -1.44665,2.50673 c 0.23952,0 0.43667,0.12348 0.46329,0.28451 l 0.23646,2.67392 c 0,0.26514 -0.30965,0.48165 -0.69899,0.48165 -0.38894,0 -0.69832,-0.21651 -0.69832,-0.48165 l 0.23633,-2.67392 c 0.026,-0.16103 0.22315,-0.28451 0.46204,-0.28451 h -8.1e-4 m 1.44665,-0.8355 c 0.11995,-0.2076 0.32635,-0.31524 0.47865,-0.25817 l 2.43396,1.13251 c 0.22937,0.1325 0.26195,0.5091 0.0686,0.84623 -0.19545,0.33585 -0.53874,0.49592 -0.76666,0.36377 l -2.19827,-1.54051 c -0.12567,-0.10415 -0.13502,-0.33728 -0.0156,-0.54425 h -9.5e-4 m -2.89182,1.4e-4 c 0.12014,0.20683 0.11107,0.44 -0.0156,0.54431 l -2.19812,1.54045 c -0.22854,0.13216 -0.57121,-0.0279 -0.76569,-0.36376 -0.19514,-0.33715 -0.16055,-0.71374 0.0674,-0.84624 l 2.43397,-1.1325 c 0.15215,-0.0571 0.35961,0.0506 0.4788,0.25822 h -7.6e-4"
     fill="#fdbb30"
     id="path1808"
     style="stroke-width:0.0477127;fill:#cccccc" />
  <path
     d="m -360.40385,314.91808 c 0,0.082 -0.007,0.16671 -0.0298,0.24105 -0.0933,0.30875 -0.4129,0.56983 -0.81283,0.56983 -0.33347,0 -0.59832,-0.18942 -0.59832,-0.58949 0,-0.6123 0.67394,-0.78139 1.44111,-0.77715 l -1.9e-4,0.55571 z m 1.20332,-1.06705 c 0,-1.00964 -0.43142,-1.89806 -1.88913,-1.89806 -0.74828,0 -1.34217,0.21018 -1.66632,0.3975 l 0.23741,0.81168 c 0.29626,-0.18702 0.76842,-0.34185 1.21525,-0.34185 0.7394,-0.002 0.86049,0.41873 0.86049,0.68801 v 0.0638 c -1.61178,-0.002 -2.63064,0.55571 -2.63064,1.69261 0,0.6947 0.51893,1.34534 1.42099,1.34534 0.55428,0 1.01852,-0.22123 1.29635,-0.57598 h 0.0275 c 0,0 0.18383,0.77018 1.19873,0.47551 -0.0529,-0.3203 -0.0704,-0.6622 -0.0704,-1.07335 l -1.5e-4,-1.58516 m -25.11322,-3.27307 c 0,0 1.05325,4.3158 1.22143,5.01624 0.1962,0.81754 0.5498,1.11852 1.5688,0.91531 l 0.65763,-2.67563 c 0.16675,-0.66493 0.27835,-1.139 0.3858,-1.81471 h 0.0187 c 0.0754,0.68287 0.18245,1.15183 0.31968,1.8169 0,0 0.26756,1.21477 0.40484,1.85259 0.13741,0.63763 0.51987,1.03976 1.51812,0.82085 l 1.56707,-5.93174 h -1.26486 l -0.53524,2.5647 c -0.14391,0.74623 -0.27435,1.32999 -0.37501,2.01252 h -0.0179 c -0.0914,-0.67652 -0.20793,-1.23648 -0.35407,-1.96371 l -0.55681,-2.61351 h -1.3181 l -0.59595,2.54763 c -0.16866,0.77437 -0.32683,1.39939 -0.42703,2.05921 h -0.0182 c -0.10287,-0.62131 -0.23981,-1.40718 -0.388,-2.1564 0,0 -0.35379,-1.8223 -0.47823,-2.45044 l -1.33266,1.9e-4 m 10.05468,4.34009 c 0,0.082 -0.007,0.16671 -0.0301,0.24105 -0.0931,0.30875 -0.41291,0.56983 -0.81284,0.56983 -0.33351,0 -0.59798,-0.18942 -0.59798,-0.58949 0,-0.6123 0.67375,-0.78139 1.44107,-0.77715 l -1.5e-4,0.55571 z m 1.20317,-1.06705 c 0,-1.00964 -0.43142,-1.89806 -1.88885,-1.89806 -0.74847,0 -1.34282,0.21018 -1.6668,0.3975 l 0.23714,0.81168 c 0.2962,-0.18702 0.76836,-0.34185 1.21533,-0.34185 0.73993,-0.002 0.86103,0.41873 0.86103,0.68801 v 0.0638 c -1.61245,-0.002 -2.63083,0.55571 -2.63083,1.69261 0,0.6947 0.51864,1.34534 1.42003,1.34534 0.55504,0 1.01899,-0.22123 1.29717,-0.57598 h 0.0271 c 0,0 0.18436,0.77018 1.19901,0.47551 -0.053,-0.3203 -0.0704,-0.6622 -0.0704,-1.07335 v -1.58516 m 2.00803,1.39937 v -4.6724 h -1.20474 v 5.93172 h 1.20474 v -1.25932 m 15.76026,-4.6724 v 4.37572 c 0,0.60357 0.1138,1.02597 0.35642,1.28447 0.21261,0.22603 0.56191,0.3723 0.98082,0.3723 0.35633,0 0.70664,-0.068 0.87197,-0.1293 l -0.0156,-0.94118 c -0.12301,0.03 -0.26423,0.0544 -0.45757,0.0544 -0.41052,0 -0.54779,-0.263 -0.54779,-0.80458 v -1.67423 h 1.0491 v -1.13509 h -1.0491 v -1.40252 h -1.18829 m -3.10961,1.47561 v 4.45612 h 1.24277 v -2.28161 c 0,-0.12335 0.007,-0.23079 0.0269,-0.32907 0.092,-0.47819 0.45742,-0.78344 0.98241,-0.78344 0.14389,0 0.24691,0.0156 0.35851,0.0315 v -1.16657 c -0.0936,-0.0186 -0.15721,-0.0274 -0.27372,-0.0274 -0.46378,0 -0.99143,0.29925 -1.21286,0.94118 h -0.0337 v -0.84069 h -1.09048 m -11.80707,0 v 4.45612 h 1.2108 v -2.61308 c 0,-0.12262 0.0144,-0.25231 0.0569,-0.36472 0.10031,-0.26308 0.3452,-0.57121 0.73591,-0.57121 0.48883,0 0.71708,0.41304 0.71708,1.00916 v 2.53952 h 1.20985 v -2.6449 c 0,-0.117 0.016,-0.25805 0.0506,-0.3612 0.0994,-0.29944 0.3631,-0.54292 0.72639,-0.54292 0.4953,0 0.73305,0.4058 0.73305,1.10746 v 2.44141 h 1.21066 v -2.62468 c 0,-1.384 -0.7028,-1.93188 -1.49626,-1.93188 -0.35107,0 -0.62848,0.0879 -0.87935,0.24166 -0.21065,0.12978 -0.39959,0.31367 -0.56444,0.55538 h -0.0179 c -0.19133,-0.48022 -0.6415,-0.7968 -1.22813,-0.7968 -0.75362,0 -1.09233,0.38204 -1.29778,0.70601 h -0.0181 v -0.60548 h -1.1493"
     fill="#1a75cf"
     id="path1810"
     style="stroke-width:0.0477127;fill:#cccccc" />
  <path
     d="m -341.56888,316.29306 h 0.0183 c 0.0242,0 0.0399,-0.01 0.0399,-0.0249 0,-0.017 -0.0146,-0.0262 -0.0372,-0.0262 -0.007,0 -0.0156,0.002 -0.0209,0.002 v 0.0499 -4.8e-4 z m -0.003,0.12015 h -0.0643 v -0.2097 c 0.0146,-0.003 0.0486,-0.007 0.0923,-0.007 0.0474,0 0.0686,0.006 0.0841,0.0172 0.013,0.009 0.0226,0.0248 0.0226,0.0459 0,0.0215 -0.0198,0.0397 -0.049,0.0476 v 0.003 c 0.0238,0.006 0.0369,0.0236 0.0436,0.0538 0.006,0.0302 0.0107,0.0426 0.0145,0.0504 h -0.0729 c -0.006,-0.007 -0.01,-0.0264 -0.0144,-0.0449 -0.004,-0.0213 -0.0141,-0.0319 -0.0357,-0.0319 h -0.0212 z m 0.0266,-0.27803 c -0.0924,0 -0.16213,0.0753 -0.16213,0.1713 0,0.0936 0.0699,0.1698 0.16466,0.1698 0.0952,0.002 0.16505,-0.0763 0.16505,-0.17133 0,-0.0947 -0.0699,-0.16977 -0.16615,-0.16977 z m 0.004,-0.0569 c 0.12882,0 0.23154,0.10149 0.23154,0.22664 0,0.12668 -0.10277,0.22826 -0.23331,0.22826 -0.13059,0 -0.23461,-0.1017 -0.23461,-0.22821 0,-0.12525 0.10416,-0.22663 0.23461,-0.22663 h 9.6e-4"
     fill="#fdbb30"
     id="path1812"
     style="stroke-width:0.0477127;fill:#cccccc" />
</svg>
