<?xml version="1.0" encoding="UTF-8" standalone="no"?>
<svg
   width="120"
   height="46"
   viewBox="-384.501 305.5 43.263312 16.590512"
   version="1.1"
   id="svg1814"
   sodipodi:docname="logo_cimat.svg"
   inkscape:version="1.2.1 (9c6d41e410, 2022-07-14)"
   xmlns:inkscape="http://www.inkscape.org/namespaces/inkscape"
   xmlns:sodipodi="http://sodipodi.sourceforge.net/DTD/sodipodi-0.dtd"
   xmlns="http://www.w3.org/2000/svg"
   xmlns:svg="http://www.w3.org/2000/svg">
  <defs
     id="defs1818" />
  <sodipodi:namedview
     id="namedview1816"
     pagecolor="#ffffff"
     bordercolor="#000000"
     borderopacity="0.25"
     inkscape:showpageshadow="2"
     inkscape:pageopacity="0.0"
     inkscape:pagecheckerboard="0"
     inkscape:deskcolor="#d1d1d1"
     showgrid="false"
     inkscape:zoom="8"
     inkscape:cx="56.5"
     inkscape:cy="27.125"
     inkscape:window-width="1920"
     inkscape:window-height="1009"
     inkscape:window-x="1358"
     inkscape:window-y="-315"
     inkscape:window-maximized="1"
     inkscape:current-layer="svg1814" />
  <text
     transform="scale(1.0198647,0.98052222)"
     id="text4238"
     y="328.2536"
     x="-361.8515"
     style="font-style:normal;font-weight:normal;font-size:0.68448px;line-height:0%;font-family:sans-serif;letter-spacing:0px;word-spacing:0px;fill:#999999;fill-opacity:1;stroke:none;stroke-width:0.0570399px;stroke-linecap:butt;stroke-linejoin:miter;stroke-opacity:1"
     xml:space="preserve"><tspan
       style="font-style:normal;font-variant:normal;font-weight:normal;font-stretch:normal;font-size:3.99279px;line-height:1.25;font-family:'Times New Roman';-inkscape-font-specification:'Times New Roman, ';fill:#999999;fill-opacity:1;stroke-width:0.0570399px"
       y="328.2536"
       x="-361.8515"
       id="tspan4240"
       sodipodi:role="line">CIMAT</tspan></text>
  <path
     sodipodi:nodetypes="cccccc"
     inkscape:connector-curvature="0"
     id="path4242"
     d="m -364.88469,316.01684 c 0.0874,1.69819 1.14598,2.49827 2.99259,1.86541 l 3.26475,-2.96291 -0.005,-2.14409 -4.36161,-3.28377 v 0"
     style="fill:none;fill-rule:evenodd;stroke:#999999;stroke-width:0.125488;stroke-linecap:butt;stroke-linejoin:miter;stroke-miterlimit:4;stroke-dasharray:none;stroke-opacity:1" />
  <path
     sodipodi:nodetypes="cccccc"
     inkscape:connector-curvature="0"
     id="path4244"
     d="m -361.08201,313.16939 -3.89105,2.80162 c -0.7507,0.39836 -2.743,0.33508 -2.80115,-1.68504 l 0.0407,-5.06523 c 0.38646,-1.02292 1.2389,-1.74569 2.77059,-1.13688 v 0.0203"
     style="fill:none;fill-rule:evenodd;stroke:#999999;stroke-width:0.125275;stroke-linecap:butt;stroke-linejoin:miter;stroke-miterlimit:4;stroke-dasharray:none;stroke-opacity:1" />
  <path
     inkscape:connector-curvature="0"
     id="path4246"
     d="m -359.8734,314.00745 c -0.0458,-0.0573 -3.32771,-2.61313 -3.32771,-2.61313"
     style="fill:none;fill-rule:evenodd;stroke:#999999;stroke-width:0.125488;stroke-linecap:butt;stroke-linejoin:miter;stroke-miterlimit:4;stroke-dasharray:none;stroke-opacity:1" />
  <path
     sodipodi:nodetypes="cccccc"
     inkscape:connector-curvature="0"
     id="path4248"
     d="m -362.30439,312.12846 -2.80457,2.11739 c -0.57696,0.47054 -0.87457,0.30414 -0.83472,-0.44694 l -0.0581,-3.61592 c -0.0333,-0.7137 0.45415,-0.56445 0.83793,-0.26389 l 0.43529,0.32501"
     style="fill:none;fill-rule:evenodd;stroke:#999999;stroke-width:0.125488;stroke-linecap:butt;stroke-linejoin:miter;stroke-miterlimit:4;stroke-dasharray:none;stroke-opacity:1" />
  <path
     inkscape:connector-curvature="0"
     id="path4250"
     d="m -360.82689,311.12836 2.21861,-1.70433 -0.018,1.85584 -1.01913,0.77642"
     style="fill:none;fill-rule:evenodd;stroke:#999999;stroke-width:0.124199;stroke-linecap:butt;stroke-linejoin:miter;stroke-miterlimit:4;stroke-dasharray:none;stroke-opacity:1" />
  <path
     sodipodi:nodetypes="cccccccscc"
     inkscape:connector-curvature="0"
     id="path4252"
     d="m -363.04795,312.66831 v -4.47153 c 0.0455,-0.73539 0.35091,-0.56112 0.66207,-0.36669 l 2.41402,2.45476 1.33941,-0.99312 -3.15247,-3.18302 c -1.6799,-0.67605 -2.62753,-0.16415 -3.08628,1.1408 0,0 0.0204,6.7633 0.0204,6.80404 0,0.0407 1.83342,-1.3445 1.83342,-1.3445 z"
     style="fill:#999999;fill-opacity:1;fill-rule:evenodd;stroke:#999999;stroke-width:0.125488;stroke-linecap:butt;stroke-linejoin:miter;stroke-miterlimit:4;stroke-dasharray:none;stroke-opacity:1" />
  <path
     sodipodi:nodetypes="ccccccccc"
     inkscape:connector-curvature="0"
     id="path4256"
     d="m -364.88829,315.99163 1.92304,-1.43328 0.0108,1.49449 c 0.0989,0.42137 0.30682,0.29769 0.51856,0.15486 l 3.71686,-3.47828 0.0815,0.0712 v 2.13391 l -3.24415,2.93348 c -1.77811,0.61227 -2.84135,0.0842 -3.00661,-1.87647 z"
     style="fill:#999999;fill-opacity:1;fill-rule:evenodd;stroke:#999999;stroke-width:0.125488;stroke-linecap:butt;stroke-linejoin:miter;stroke-miterlimit:4;stroke-dasharray:none;stroke-opacity:1" />
  <path
     inkscape:connector-curvature="0"
     id="path4272"
     d="m -366.10382,316.10061 c -0.46327,-0.0478 -0.83622,-0.22003 -1.11335,-0.51403 -0.22342,-0.237 -0.35536,-0.49876 -0.42735,-0.84773 -0.0521,-0.25293 -0.0539,-0.38387 -0.036,-2.88662 l 0.0186,-2.62166 0.14324,-0.28151 c 0.25104,-0.49329 0.60157,-0.8074 1.05349,-0.94397 0.29528,-0.0893 0.79564,-0.0699 1.15642,0.0448 0.13468,0.0428 0.27404,0.0796 0.3097,0.0818 l 0.0648,0.004 v 0.92784 0.92786 l -0.21571,-0.15477 c -0.49868,-0.35779 -0.84534,-0.3092 -0.91657,0.12847 -0.008,0.0555 -3e-5,1.03425 0.0199,2.17513 0.0329,1.87667 0.0413,2.08599 0.0879,2.19726 0.13415,0.32015 0.43723,0.31799 0.86184,-0.006 0.0741,-0.0565 0.24159,-0.17629 0.372,-0.26591 0.42678,-0.29334 1.70467,-1.25019 1.7784,-1.33163 0.0396,-0.0437 0.20536,-0.17983 0.36833,-0.30239 l 0.29634,-0.22285 0.56236,0.43934 c 0.30931,0.24162 0.56819,0.44876 0.57533,0.46029 0.007,0.0115 -0.86729,0.65673 -1.94315,1.43377 -2.06697,1.49287 -2.08449,1.50391 -2.45293,1.5444 -0.30616,0.0337 -0.36128,0.035 -0.5637,0.0141 z"
     style="fill:#cccccc;fill-opacity:1;stroke:#999999;stroke-width:0.063381;stroke-linecap:round;stroke-linejoin:round;stroke-miterlimit:4;stroke-dasharray:none;stroke-dashoffset:0;stroke-opacity:1" />
  <path
     inkscape:connector-curvature="0"
     id="path4280"
     d="m -360.45472,313.45281 c -0.24649,-0.19552 -0.91341,-0.71908 -1.48202,-1.16343 l -1.03385,-0.80795 v -0.93299 c 0,-0.51314 0.005,-0.93298 0.011,-0.93298 0.008,0 3.63101,2.7202 4.09698,3.07591 0.0432,0.0329 0.0345,0.0422 -0.53158,0.57089 -0.3165,0.29558 -0.58375,0.53936 -0.5939,0.54174 -0.0104,0.002 -0.22011,-0.15564 -0.4666,-0.35119 z"
     style="fill:#cccccc;fill-opacity:1;stroke:#999999;stroke-width:0.0448171;stroke-linecap:round;stroke-linejoin:round;stroke-miterlimit:4;stroke-dasharray:none;stroke-dashoffset:0;stroke-opacity:1" />
  <path
     inkscape:connector-curvature="0"
     id="path4282"
     d="m -360.06753,311.61186 c -0.24088,-0.18195 -0.48433,-0.36608 -0.54097,-0.40921 l -0.10293,-0.0784 0.81089,-0.6229 c 0.446,-0.34261 0.90387,-0.69436 1.0175,-0.78167 l 0.20659,-0.15877 -0.007,0.82768 c -0.005,0.58229 -0.0104,0.83457 -0.0181,0.85095 -0.012,0.0244 -0.90032,0.70556 -0.91805,0.70402 -0.006,-4.7e-4 -0.20727,-0.14976 -0.44816,-0.33169 z"
     style="fill:#cccccc;fill-opacity:1;stroke:#999999;stroke-width:0.0338247;stroke-linecap:round;stroke-linejoin:round;stroke-miterlimit:4;stroke-dasharray:none;stroke-dashoffset:0;stroke-opacity:1" />
  <ellipse
     ry="0.057619043"
     rx="0.059419643"
     cy="312.76855"
     cx="-358.77704"
     id="path4286"
     style="fill:none;fill-opacity:1;stroke:#999999;stroke-width:0.051336;stroke-linecap:round;stroke-linejoin:round;stroke-miterlimit:4;stroke-dasharray:none;stroke-dashoffset:0;stroke-opacity:1" />
  <ellipse
     ry="0.075923391"
     rx="0.024249032"
     cy="309.65298"
     cx="-362.9957"
     id="path4286-0"
     style="fill:#999999;fill-opacity:1;stroke:#999999;stroke-width:0.0376451;stroke-linecap:round;stroke-linejoin:round;stroke-miterlimit:4;stroke-dasharray:none;stroke-dashoffset:0;stroke-opacity:1" />
  <path
     inkscape:connector-curvature="0"
     id="path4303"
     d="m -362.88498,309.58204 -0.44817,-0.36669"
     style="fill:none;fill-rule:evenodd;stroke:#999999;stroke-width:0.125488;stroke-linecap:butt;stroke-linejoin:miter;stroke-miterlimit:4;stroke-dasharray:none;stroke-opacity:1" />
  <path
     inkscape:connector-curvature="0"
     id="path4305"
     d="m -359.96541,310.38486 c 1.16014,-0.90696 1.16014,-0.90696 1.16014,-0.90696"
     style="fill:none;fill-rule:evenodd;stroke:#999999;stroke-width:0.0587933px;stroke-linecap:butt;stroke-linejoin:miter;stroke-opacity:1" />
  <ellipse
     ry="0.012095525"
     rx="0.011458918"
     cy="313.82883"
     cx="-359.99097"
     id="path4309"
     style="fill:#999999;fill-opacity:1;stroke:#999999;stroke-width:0;stroke-linecap:round;stroke-linejoin:round;stroke-miterlimit:4;stroke-dasharray:none;stroke-dashoffset:0;stroke-opacity:1" />
  <path
     inkscape:connector-curvature="0"
     id="path4315"
     d="m -361.31384,313.32783 0.32595,-0.23937"
     style="fill:none;fill-rule:evenodd;stroke:#999999;stroke-width:0.136896;stroke-linecap:butt;stroke-linejoin:miter;stroke-miterlimit:4;stroke-dasharray:none;stroke-opacity:1" />
</svg>
