<?xml version="1.0" encoding="UTF-8" standalone="no"?>
<svg
   width="120"
   height="46"
   viewBox="-384.501 305.5 43.263312 16.590512"
   version="1.1"
   id="svg1814"
   sodipodi:docname="logo_diageo.svg"
   inkscape:version="1.2.1 (9c6d41e410, 2022-07-14)"
   inkscape:export-filename="logo_diageo.png"
   inkscape:export-xdpi="96"
   inkscape:export-ydpi="96"
   xmlns:inkscape="http://www.inkscape.org/namespaces/inkscape"
   xmlns:sodipodi="http://sodipodi.sourceforge.net/DTD/sodipodi-0.dtd"
   xmlns="http://www.w3.org/2000/svg"
   xmlns:svg="http://www.w3.org/2000/svg">
  <defs
     id="defs1818" />
  <sodipodi:namedview
     id="namedview1816"
     pagecolor="#ffffff"
     bordercolor="#000000"
     borderopacity="0.25"
     inkscape:showpageshadow="2"
     inkscape:pageopacity="0.0"
     inkscape:pagecheckerboard="0"
     inkscape:deskcolor="#d1d1d1"
     showgrid="false"
     inkscape:zoom="5.4758349"
     inkscape:cx="50.038032"
     inkscape:cy="-20.088261"
     inkscape:window-width="1920"
     inkscape:window-height="1009"
     inkscape:window-x="1358"
     inkscape:window-y="-8"
     inkscape:window-maximized="1"
     inkscape:current-layer="svg1814" />
  <path
     d="m -370.77982,314.62782 c 0.0273,-0.055 0.0729,-0.1458 0.0914,-0.19157 l 1.11192,-2.69784 1.09377,2.72521 c 0.0182,0.0455 0.0548,0.11867 0.0819,0.18212 l -0.13659,0.0273 c -0.30978,0.0823 -0.65612,0.13661 -1.01166,0.13661 -0.35555,0 -0.68348,-0.0455 -1.02983,-0.13661 -0.064,-0.0179 -0.15525,-0.0452 -0.20078,-0.0452 z m -11.31135,-4.11081 c 1.23981,0 2.11462,0.25527 2.6615,0.73821 0.65636,0.57425 0.9843,1.33063 0.9843,2.27884 0,0.90219 -0.31898,1.6496 -0.94797,2.23283 -0.54688,0.51975 -1.4401,0.79319 -2.69807,0.79319 h -0.40085 v -6.04307 z m 38.28178,0.77478 c 0.61979,0.60137 0.9206,1.358 0.9206,2.24227 0,0.87457 -0.30978,1.62199 -0.9206,2.24227 -0.61058,0.61058 -1.34904,0.92059 -2.2149,0.92059 -1.74091,0 -3.12629,-1.43091 -3.12629,-3.16286 0,-0.87531 0.30977,-1.6317 0.92059,-2.25147 0.60162,-0.61058 1.34904,-0.91139 2.2057,-0.91139 0.85666,0 1.59511,0.30977 2.2149,0.92059 z m -14.68373,0.52848 1.10322,-0.94797 c -0.94796,-1.26694 -2.21514,-1.89592 -3.70999,-1.89592 -2.54283,0 -4.59352,2.03253 -4.59352,4.57536 0,2.4881 2.04172,4.53927 4.52982,4.53927 0.62923,0 1.23084,-0.13661 1.81406,-0.40109 0.56481,-0.25503 1.05719,-0.61057 1.45828,-1.07559 0.38266,-0.42821 0.62874,-0.92059 0.7743,-1.45828 0.11868,-0.44661 0.19158,-0.9935 0.15524,-1.6496 l -0.0179,-0.26448 h -3.97446 v 1.39457 h 2.4433 c -0.064,0.54689 -0.34683,1.02086 -0.83873,1.41298 -0.53792,0.43766 -1.14851,0.64717 -1.83198,0.64717 -0.79272,0 -1.50381,-0.32819 -2.16017,-0.97534 -0.59241,-0.60163 -0.89323,-1.32168 -0.89323,-2.16016 0,-0.88402 0.30978,-1.64985 0.94796,-2.2878 0.60163,-0.61058 1.33087,-0.90244 2.16961,-0.90244 1.07439,2.6e-4 1.92208,0.49239 2.62422,1.44932 z m -9.34254,4.20189 0.81112,1.93249 h 1.60433 l -3.76449,-8.8596 h -0.72926 l -3.86474,8.8596 h 1.59511 l 0.84769,-1.96882 c 0.0183,-0.055 0.0273,-0.0914 0.0366,-0.12764 0.0363,0.0183 0.0911,0.0363 0.15501,0.064 0.47398,0.18212 1.03903,0.2824 1.59487,0.2824 0.54689,0 1.08457,-0.10924 1.40354,-0.21847 0.16421,-0.055 0.21871,-0.0823 0.26448,-0.10923 0.009,0.0362 0.0366,0.11795 0.0458,0.14532 z m -14.30106,1.93249 c 1.62249,0 2.87103,-0.36475 3.70975,-1.12113 0.95717,-0.85713 1.44011,-1.95091 1.44011,-3.2905 0,-1.39458 -0.49214,-2.51571 -1.47668,-3.35419 -0.82952,-0.7111 -2.05989,-1.06641 -3.655,-1.06641 h -1.88673 v 8.83223 z m 6.3347,-8.83223 v 8.83223 h 1.4493 v -8.83223 z m 21.2376,4.71196 h 3.08996 v -1.38512 h -3.08996 v -1.93225 h 3.3634 v -1.39459 h -4.81272 v 8.83223 h 4.82167 v -1.39457 h -3.37235 z m 5.30461,-3.51792 c -0.90267,0.88402 -1.34905,1.96858 -1.34905,3.22656 0,2.54307 2.0507,4.54823 4.58482,4.54823 2.54307,0 4.5848,-1.99619 4.5848,-4.54823 0,-1.24878 -0.45558,-2.31517 -1.3396,-3.2176 -0.89346,-0.90242 -1.97826,-1.3488 -3.24496,-1.3488 -1.25822,0 -2.34303,0.44662 -3.23601,1.33984 z"
     fill="#ab1051"
     id="path1858"
     style="stroke-width:0.242198;fill:#cccccc" />
</svg>
