<?xml version="1.0" encoding="UTF-8" standalone="no"?>
<!-- Created with Inkscape (http://www.inkscape.org/) -->

<svg
   width="140"
   height="35"
   viewBox="0 0 37.041667 9.2604165"
   version="1.1"
   id="svg1360"
   inkscape:version="1.2.1 (9c6d41e410, 2022-07-14)"
   sodipodi:docname="logo_logo.svg"
   inkscape:export-filename="..\logo_logo.png"
   inkscape:export-xdpi="96"
   inkscape:export-ydpi="96"
   xmlns:inkscape="http://www.inkscape.org/namespaces/inkscape"
   xmlns:sodipodi="http://sodipodi.sourceforge.net/DTD/sodipodi-0.dtd"
   xmlns="http://www.w3.org/2000/svg"
   xmlns:svg="http://www.w3.org/2000/svg">
  <sodipodi:namedview
     id="namedview1362"
     pagecolor="#ffffff"
     bordercolor="#000000"
     borderopacity="0.25"
     inkscape:showpageshadow="2"
     inkscape:pageopacity="0.0"
     inkscape:pagecheckerboard="0"
     inkscape:deskcolor="#d1d1d1"
     inkscape:document-units="mm"
     showgrid="false"
     inkscape:zoom="5.2107659"
     inkscape:cx="103.24778"
     inkscape:cy="55.941872"
     inkscape:window-width="1350"
     inkscape:window-height="720"
     inkscape:window-x="1683"
     inkscape:window-y="113"
     inkscape:window-maximized="0"
     inkscape:current-layer="layer1" />
  <defs
     id="defs1357" />
  <g
     inkscape:label="Capa 1"
     inkscape:groupmode="layer"
     id="layer1">
    <g
       id="g277"
       transform="matrix(0.18418919,0,0,0.18418919,1.4951731,5.308652)">
      <path
         d="m 0,0 c -0.212,-0.479 -0.505,-0.871 -0.823,-1.238 -0.311,-0.374 -0.698,-0.668 -1.083,-0.963 -0.753,-0.61 -1.432,-1.298 -2.197,-1.894 l -0.049,0.755 c 0.326,-0.289 0.638,-0.598 0.976,-0.871 0.332,-0.28 0.708,-0.5 1.107,-0.689 0.404,-0.182 0.757,-0.434 1.094,-0.708 0.338,-0.273 0.657,-0.572 0.942,-0.917 0.122,-0.148 0.101,-0.367 -0.047,-0.489 -0.101,-0.083 -0.235,-0.1 -0.349,-0.055 -0.416,0.164 -0.799,0.375 -1.163,0.612 -0.365,0.236 -0.713,0.494 -1.011,0.822 -0.303,0.321 -0.628,0.611 -0.998,0.84 -0.363,0.237 -0.753,0.439 -1.129,0.659 -0.214,0.126 -0.286,0.402 -0.161,0.616 0.015,0.024 0.031,0.046 0.048,0.066 l 0.064,0.074 c 0.638,0.73 1.363,1.37 2.014,2.087 0.315,0.369 0.631,0.738 1.021,1.028 0.384,0.297 0.793,0.568 1.282,0.753 C -0.274,0.56 -0.063,0.465 0.008,0.277 0.043,0.184 0.037,0.084 0,0"
         style="fill:#434040;fill-opacity:1;fill-rule:nonzero;stroke:none"
         id="path279" />
    </g>
    <g
       id="g281"
       transform="matrix(0.18418919,0,0,0.18418919,1.2824717,4.7191182)">
      <path
         d="m 0,0 c 0,0 1.376,0.039 3.785,0.107 2.409,0.052 5.85,0.096 9.979,0.053 2.064,-0.023 4.301,-0.081 6.667,-0.066 1.182,-0.004 2.397,0.008 3.639,0.06 1.242,0.064 2.511,0.177 3.802,0.224 2.58,0.132 5.247,-0.066 7.957,-0.075 2.709,-0.032 5.462,-0.01 8.214,-0.11 2.753,-0.073 5.506,-0.184 8.216,0.084 2.71,0.143 5.376,-0.024 7.957,-0.035 2.581,-0.055 5.076,-0.059 7.441,-0.076 2.365,0.006 4.602,0.223 6.667,0.194 4.129,-0.032 7.57,-0.111 9.978,-0.194 C 86.711,0.079 88.087,0 88.087,0 c 0.14,-0.008 0.246,-0.127 0.238,-0.266 -0.008,-0.13 -0.111,-0.231 -0.238,-0.238 0,0 -1.376,-0.079 -3.785,-0.166 -2.408,-0.082 -5.849,-0.162 -9.978,-0.194 -2.065,-0.029 -4.302,0.188 -6.667,0.194 -2.365,-0.017 -4.86,-0.021 -7.441,-0.076 -2.581,-0.011 -5.247,-0.178 -7.957,-0.035 -2.71,0.268 -5.463,0.157 -8.216,0.084 -2.752,-0.1 -5.505,-0.078 -8.214,-0.11 -2.71,-0.008 -5.377,-0.207 -7.957,-0.075 -1.291,0.048 -2.56,0.16 -3.802,0.224 -1.242,0.053 -2.457,0.064 -3.639,0.06 -2.366,0.015 -4.603,-0.043 -6.667,-0.066 C 9.635,-0.707 6.194,-0.663 3.785,-0.611 1.376,-0.543 0,-0.504 0,-0.504 -0.139,-0.5 -0.249,-0.384 -0.245,-0.245 -0.241,-0.111 -0.132,-0.004 0,0"
         style="fill:#434040;fill-opacity:1;fill-rule:nonzero;stroke:none"
         id="path283" />
    </g>
    <g
       id="g285"
       transform="matrix(0.18418919,0,0,0.18418919,35.925693,5.3985913)">
      <path
         d="m 0,0 c 0.489,-0.186 0.898,-0.456 1.282,-0.753 0.39,-0.29 0.705,-0.659 1.021,-1.028 0.651,-0.718 1.375,-1.357 2.013,-2.088 L 4.379,-3.94 C 4.542,-4.127 4.523,-4.411 4.336,-4.575 4.315,-4.593 4.291,-4.61 4.268,-4.624 3.892,-4.845 3.502,-5.046 3.138,-5.283 2.769,-5.513 2.444,-5.802 2.141,-6.124 1.843,-6.451 1.495,-6.709 1.129,-6.945 0.766,-7.183 0.383,-7.393 -0.033,-7.558 c -0.178,-0.07 -0.381,0.017 -0.451,0.196 -0.048,0.121 -0.022,0.254 0.055,0.348 0.285,0.346 0.604,0.645 0.942,0.917 0.337,0.275 0.69,0.527 1.093,0.709 0.399,0.189 0.775,0.409 1.108,0.689 0.338,0.273 0.649,0.581 0.975,0.871 L 3.641,-4.583 c -0.766,0.596 -1.444,1.284 -2.197,1.894 -0.385,0.294 -0.772,0.589 -1.083,0.962 -0.318,0.368 -0.611,0.76 -0.823,1.239 -0.081,0.183 0.001,0.399 0.185,0.481 C -0.186,0.033 -0.086,0.033 0,0"
         style="fill:#434040;fill-opacity:1;fill-rule:nonzero;stroke:none"
         id="path287" />
    </g>
    <g
       id="g289"
       transform="matrix(0.18418919,0,0,0.18418919,36.05341,4.6263051)">
      <path
         d="m 0,0 c 0,0 -1.376,-0.039 -3.785,-0.107 -2.409,-0.052 -5.85,-0.096 -9.979,-0.053 -2.064,0.023 -4.301,0.081 -6.667,0.066 -1.182,0.004 -2.397,-0.008 -3.639,-0.06 -1.242,-0.064 -2.511,-0.177 -3.802,-0.224 -2.58,-0.132 -5.247,0.066 -7.957,0.075 -2.709,0.032 -5.462,0.01 -8.214,0.11 -2.753,0.073 -5.506,0.184 -8.216,-0.084 -2.71,-0.143 -5.376,0.024 -7.957,0.035 -2.581,0.055 -5.076,0.059 -7.441,0.076 -2.365,-0.006 -4.602,-0.223 -6.667,-0.194 -4.129,0.032 -7.57,0.111 -9.978,0.194 -2.409,0.087 -3.785,0.166 -3.785,0.166 -0.14,0.008 -0.246,0.127 -0.238,0.266 0.008,0.13 0.111,0.231 0.238,0.238 0,0 1.376,0.079 3.785,0.166 2.408,0.082 5.849,0.162 9.978,0.194 2.065,0.029 4.302,-0.188 6.667,-0.194 2.365,0.017 4.86,0.021 7.441,0.076 2.581,0.011 5.247,0.178 7.957,0.035 2.71,-0.268 5.463,-0.157 8.216,-0.084 2.752,0.1 5.505,0.078 8.214,0.11 2.71,0.008 5.377,0.207 7.957,0.075 1.291,-0.048 2.56,-0.16 3.802,-0.224 1.242,-0.053 2.457,-0.064 3.639,-0.06 2.366,-0.015 4.603,0.043 6.667,0.066 4.129,0.043 7.57,-0.001 9.979,-0.053 C -1.376,0.543 0,0.504 0,0.504 0.139,0.5 0.249,0.384 0.245,0.245 0.241,0.111 0.132,0.004 0,0"
         style="fill:#434040;fill-opacity:1;fill-rule:nonzero;stroke:none"
         id="path291" />
    </g>
    <g
       id="g293"
       transform="matrix(0.18418919,0,0,0.18418919,17.878746,4.1751893)">
      <path
         d="M 0,0 C 0,0 0.074,0.427 0.286,1.022 0.39,1.321 0.528,1.662 0.7,2.017 0.878,2.369 1.097,2.731 1.273,3.113 1.479,3.481 1.564,3.903 1.696,4.276 1.847,4.64 2.058,4.949 2.204,5.229 2.539,5.77 2.815,6.106 2.815,6.106 2.961,6.284 3.223,6.311 3.4,6.165 3.518,6.069 3.569,5.921 3.548,5.781 3.548,5.781 3.483,5.35 3.306,4.739 3.197,4.443 3.108,4.08 2.939,3.724 2.751,3.376 2.495,3.03 2.36,2.63 2.195,2.244 2.072,1.838 1.93,1.47 1.782,1.105 1.622,0.774 1.47,0.496 1.17,-0.06 0.902,-0.401 0.902,-0.401 0.729,-0.622 0.408,-0.661 0.187,-0.487 0.035,-0.368 -0.03,-0.178 0,0"
         style="fill:#434040;fill-opacity:1;fill-rule:nonzero;stroke:none"
         id="path295" />
    </g>
    <g
       id="g297"
       transform="matrix(0.18418919,0,0,0.18418919,18.806084,4.1751893)">
      <path
         d="M 0,0 C 0,0 0.074,0.427 0.286,1.022 0.39,1.321 0.528,1.662 0.7,2.017 0.878,2.369 1.097,2.731 1.273,3.113 1.479,3.481 1.564,3.903 1.697,4.276 1.848,4.64 2.058,4.949 2.204,5.229 2.54,5.77 2.816,6.107 2.816,6.107 2.961,6.284 3.223,6.311 3.401,6.165 3.519,6.069 3.569,5.921 3.548,5.781 3.548,5.781 3.483,5.35 3.307,4.739 3.197,4.442 3.108,4.08 2.939,3.724 2.751,3.376 2.496,3.03 2.36,2.63 2.195,2.244 2.072,1.838 1.931,1.47 1.782,1.105 1.622,0.774 1.47,0.496 1.17,-0.061 0.902,-0.401 0.902,-0.401 0.729,-0.622 0.408,-0.661 0.187,-0.487 0.035,-0.367 -0.03,-0.178 0,0"
         style="fill:#434040;fill-opacity:1;fill-rule:nonzero;stroke:none"
         id="path299" />
    </g>
  </g>
</svg>
